# xmcd
#
# Track frame offsets: 
#        150
#        22923
#        52143
#        69924
#        88306
#
# Disc length: 1376 seconds
#
# Revision: 0
# Processed by: cddbd v1.5.2PL0 Copyright (c) Steve Scherf et al.
# Submitted via: ExactAudioCopy v1.1
#
DISCID=3c055e05
DTITLE=Petit Noir - The King of Anxiety EP
DYEAR=2015
DGENRE=Electronic
TTITLE0=Come Inside
TTITLE1=Chess
TTITLE2=Shadows
TTITLE3=Ghosts
TTITLE4=The Fall
EXTD=
EXTT0=
EXTT1=
EXTT2=
EXTT3=
EXTT4=
PLAYORDER=
